<svg width="800" height="600" xmlns="http://www.w3.org/2000/svg">

 <g>
  <title>Layer 1</title>
  <g transform="rotate(-7.63893 390.965 294.753)" id="svg_21">
   <path id="svg_12" d="m394,74c-223,-70 -292,74 -304,131c-12,57 4,100 -1,175c-5,75 560,218 592,160c32,-58 4,-171 4,-171" opacity="NaN" stroke-width="6" stroke="#a00000" fill="#cc8484"/>
   <path stroke="#a00000" id="svg_3" d="m398,77c-186,-90 -351,98 -294,149" opacity="NaN" stroke-width="9" fill="none"/>
   <path id="svg_5" d="m90,379c112,141 535,185 592,163" opacity="NaN" stroke-width="9" stroke="#a00000" fill="none"/>
   <path id="svg_7" d="m680,540c32,-18 10,-166 10,-166c0,0 -293,-297 -293,-297" opacity="NaN" stroke-width="9" stroke="#a00000" fill="none"/>
   <path id="svg_8" d="m107,225c-22,35 585,152 585,152" opacity="NaN" stroke-width="9" stroke="#a00000" fill="none"/>
   <path id="svg_9" d="m93,203c-19,18 0,180 0,183" opacity="NaN" stroke-width="9" stroke="#a00000" fill="none"/>
   <path id="svg_11" d="m397,74l-16,-38" opacity="NaN" stroke-width="6" fill="#000"/>
   <path id="svg_13" d="m222,252c39,-26 72,-2 72,-2c0,0 3,23 3,23c0,0 30,49 -12,49c-42,0 -67,-41 -62,-47c5,-6 -40,3 -1,-23z" opacity="NaN" stroke-width="6" stroke="#a00000" fill="#fffff8"/>
   <path stroke="#a00000" id="svg_14" d="m510.21479,423.90546c44.38323,-19.3494 81.93827,-1.48842 81.93827,-1.48842c0,0 3.41409,17.11678 3.41409,17.11678c0,0 34.14094,36.46618 -13.65638,36.46618c-47.79732,0 -45.24811,-56.51252 -70.55795,-34.97776c-25.30984,21.53475 -45.52126,2.23262 -1.13803,-17.11678z" opacity="NaN" stroke-width="6" fill="#fffff8"/>
   <path transform="rotate(-98 443.168 325.549)" stroke="#a00000" id="svg_15" d="m424.75223,301.44719c20.71667,-21.64501 38.24615,-1.665 38.24615,-1.665c0,0 1.59359,19.14751 1.59359,19.14751c0,0 15.9359,40.79252 -6.37436,40.79252c-22.31026,0 -35.59017,-34.13252 -32.93419,-39.12752c2.65598,-4.995 -21.24786,2.4975 -0.5312,-19.14751z" opacity="NaN" stroke-width="6" fill="#fffff8"/>
   <path stroke="#a00000" id="svg_16" d="m259.47459,87.34754c40.15355,-20.29949 74.12963,-1.5615 74.12963,-1.5615c0,0 3.08873,17.95724 3.08873,17.95724c0,0 30.88735,38.25673 -12.35494,38.25673c-85.68596,-26.37972 -105.01698,-34.35298 -64.86343,-54.65246z" opacity="NaN" stroke-width="6" fill="#fffff8"/>
   <path transform="rotate(-58 163.365 359.997)" stroke="#a00000" id="svg_17" d="m141.3346,337.39319c26.08153,-20.29949 48.15052,-1.5615 48.15052,-1.5615c0,0 2.00627,17.95723 2.00627,17.95723c0,0 20.06271,38.25673 -8.02509,38.25673c-55.65686,-26.37972 -68.21322,-34.35298 -42.1317,-54.65246z" opacity="NaN" stroke-width="6" fill="#fffff8"/>
   <path transform="rotate(-168.388 437.365 220.497)" stroke="#a00000" id="svg_18" d="m398.53003,200.68986c45.97598,-17.7879 84.87875,-1.3683 84.87875,-1.3683c0,0 3.53661,15.73544 3.53661,15.73544c0,0 35.36616,33.52334 -14.14645,33.52334c-98.11081,-23.11584 -120.24491,-30.10259 -74.26891,-47.89048z" opacity="NaN" stroke-width="6" fill="#fffff8"/>
   <path transform="rotate(46.6634 162.168 152.549)" stroke="#a00000" id="svg_19" d="m143.75223,128.44719c20.71666,-21.64501 38.24615,-1.665 38.24615,-1.665c0,0 1.59359,19.14751 1.59359,19.14751c0,0 15.9359,40.79252 -6.37436,40.79252c-22.31025,0 -35.59017,-34.13252 -32.93419,-39.12752c2.65599,-4.995 -21.24786,2.4975 -0.53119,-19.14751z" opacity="NaN" stroke-width="6" fill="#fffff8"/>
   <path transform="rotate(-58 353.365 431.997)" stroke="#a00000" id="svg_20" d="m340.65676,416.94418c15.04483,-13.5181 27.77507,-1.03985 27.77507,-1.03985c0,0 1.15729,11.95831 1.15729,11.95831c0,0 11.57295,25.47641 -4.62918,25.47641c-32.10503,-17.56712 -39.34803,-22.87678 -24.30319,-36.39487z" opacity="NaN" stroke-width="6" fill="#fffff8"/>
  </g>
 </g>
</svg>