<svg width="800" height="600" xmlns="http://www.w3.org/2000/svg">

 <g>
  <title>Layer 1</title>
  <path transform="rotate(-7.63893 392.161 304.284)" id="svg_12" d="m395.27755,73.92553c-223,-70 -292,74 -304,131c-12,57 4,100 -1,175c-5,75 560,218 592,160c32,-58 4,-171 4,-171" opacity="NaN" stroke-width="6" stroke="#a00000" fill="#fffff8"/>
  <path transform="rotate(-7.63893 225.931 160.224)" stroke="#a00000" id="svg_3" d="m378.65239,97.7441c-186,-90 -351,98 -294,149" opacity="NaN" stroke-width="9" fill="none"/>
  <path transform="rotate(-7.63893 408.433 462.347)" id="svg_5" d="m112.4333,378.16524c112,141 535,185 592,163" opacity="NaN" stroke-width="9" stroke="#a00000" fill="none"/>
  <path transform="rotate(-7.63893 547.628 287.611)" id="svg_7" d="m680.44094,519.11139c32,-18 10,-166 10,-166c0,0 -293,-297 -293,-297" opacity="NaN" stroke-width="9" stroke="#a00000" fill="none"/>
  <path transform="rotate(-7.63893 399.965 299.849)" id="svg_8" d="m107.75722,223.84879c-22,35 585,152 585,152" opacity="NaN" stroke-width="9" stroke="#a00000" fill="none"/>
  <path transform="rotate(-7.63893 91.4259 334.672)" id="svg_9" d="m95.64811,243.17194c-19,18 0,180 0,183" opacity="NaN" stroke-width="9" stroke="#a00000" fill="none"/>
  <path transform="rotate(-7.63893 357.147 57.3889)" id="svg_11" d="m365.14705,76.38888l-16,-38" opacity="NaN" stroke-width="6" fill="#000"/>
  <path transform="rotate(-7.63893 256.025 298.926)" id="svg_13" d="m221.3571,269.97461c39,-26 72,-2 72,-2c0,0 3,23 3,23c0,0 30,49 -12,49c-42,0 -67,-41 -62,-47c5,-6 -40,3 -1,-23z" opacity="NaN" stroke-width="6" stroke="#a00000" fill="#fffff8"/>
  <path transform="rotate(-7.63893 564.379 423.542)" stroke="#a00000" id="svg_14" d="m528.87364,401.99643c44.38323,-19.3494 81.93827,-1.48842 81.93827,-1.48842c0,0 3.41409,17.11678 3.41409,17.11678c0,0 34.14094,36.46618 -13.65638,36.46618c-47.79732,0 -45.24811,-56.51252 -70.55795,-34.97776c-25.30984,21.53475 -45.52126,2.23262 -1.13803,-17.11678z" opacity="NaN" stroke-width="6" fill="#fffff8"/>
  <path transform="rotate(-105.639 446.798 318.336)" stroke="#a00000" id="svg_15" d="m428.3826,294.23461c20.71667,-21.64501 38.24615,-1.665 38.24615,-1.665c0,0 1.59359,19.14751 1.59359,19.14751c0,0 15.9359,40.79252 -6.37436,40.79252c-22.31026,0 -35.59017,-34.13252 -32.93419,-39.12752c2.65598,-4.995 -21.24786,2.4975 -0.5312,-19.14751z" opacity="NaN" stroke-width="6" fill="#fffff8"/>
  <path transform="rotate(-7.63893 269.692 124.561)" stroke="#a00000" id="svg_16" d="m235.77477,101.95795c40.15355,-20.29949 74.12963,-1.5615 74.12963,-1.5615c0,0 3.08873,17.95724 3.08873,17.95724c0,0 30.88735,38.25673 -12.35494,38.25673c-85.68596,-26.37972 -105.01698,-34.35298 -64.86343,-54.65246z" opacity="NaN" stroke-width="6" fill="#fffff8"/>
  <path transform="rotate(-65.6389 174.058 389.672)" stroke="#a00000" id="svg_17" d="m152.02722,367.06896c26.08153,-20.29949 48.15052,-1.5615 48.15052,-1.5615c0,0 2.00627,17.95723 2.00627,17.95723c0,0 20.06271,38.25673 -8.02509,38.25673c-55.65686,-26.37972 -68.21322,-34.35298 -42.1317,-54.65246z" opacity="NaN" stroke-width="6" fill="#fffff8"/>
  <path transform="rotate(-176.027 427.083 214.988)" stroke="#a00000" id="svg_18" d="m388.24731,195.18086c45.97598,-17.7879 84.87875,-1.3683 84.87875,-1.3683c0,0 3.53661,15.73544 3.53661,15.73544c0,0 35.36616,33.52334 -14.14645,33.52334c-98.11081,-23.11584 -120.24491,-30.10259 -74.26891,-47.89048z" opacity="NaN" stroke-width="6" fill="#fffff8"/>
  <path transform="rotate(39.0245 145.295 184.225)" stroke="#a00000" id="svg_19" d="m126.8795,160.12318c20.71666,-21.64501 38.24615,-1.665 38.24615,-1.665c0,0 1.59359,19.14751 1.59359,19.14751c0,0 15.9359,40.79252 -6.37436,40.79252c-22.31025,0 -35.59017,-34.13252 -32.93419,-39.12752c2.65599,-4.995 -21.24786,2.4975 -0.53119,-19.14751z" opacity="NaN" stroke-width="6" fill="#fffff8"/>
  <path transform="rotate(-65.6389 371.942 435.777)" stroke="#a00000" id="svg_20" d="m359.23416,420.72437c15.04483,-13.5181 27.77507,-1.03985 27.77507,-1.03985c0,0 1.15729,11.95831 1.15729,11.95831c0,0 11.57295,25.47641 -4.62918,25.47641c-32.10503,-17.56712 -39.34803,-22.87678 -24.30319,-36.39487z" opacity="NaN" stroke-width="6" fill="#fffff8"/>
 </g>
</svg>